<svg preserveAspectRatio="none" width="100%" height="100%" overflow="visible" style="display: block;" viewBox="0 0 146 121" fill="none" xmlns="http://www.w3.org/2000/svg">
<g id="Mask group">
<mask id="mask0_59_2675" style="mask-type:alpha" maskUnits="userSpaceOnUse" x="0" y="0" width="146" height="121">
<rect id="Rectangle 39474" width="146" height="121" fill="var(--fill-0, #D9D9D9)"/>
</mask>
<g mask="url(#mask0_59_2675)">
<path id="Background_PolygonOutline-Glow-RightBottom" d="M-55.381 -277.052L169.92 -80.4357L101.038 103.932C98.1229 111.734 90.6788 116.912 82.3506 116.932L-202.835 117.618L-428.136 -78.998L-354.409 -276.333L-55.381 -277.052Z" fill="url(#paint0_linear_59_2675)"/>
<path id="Shape_PolygonOutline-Glow-RightBottom" d="M-65 116.257L83.3341 115.901C91.2514 115.882 98.327 110.955 101.092 103.536L128.5 30L143.5 -9.99999" stroke="var(--stroke-0, #450374)"/>
<path id="Shape_PolygonOutline-Glow-RightBottom_2" d="M-65.9984 115.257L82.3357 114.901C90.2529 114.882 97.3286 109.955 100.094 102.536L127.501 29L147.5 -23.5" stroke="var(--stroke-0, #8F49C3)"/>
</g>
</g>
<defs>
<linearGradient id="paint0_linear_59_2675" x1="388.443" y1="29.3474" x2="-139.535" y2="54.1232" gradientUnits="userSpaceOnUse">
<stop stop-color="#BE35FF"/>
<stop offset="1" stop-color="#051117"/>
</linearGradient>
</defs>
</svg>
